<svg xmlns="http://www.w3.org/2000/svg" viewBox="0 0 30 30">
<style type="text/css">
	.icon{fill:#00C300;}
</style>
<path class="icon" d="M28.727,12.92c0-6.147-6.163-11.149-13.739-11.149c-7.575,0-13.739,5.001-13.739,11.149
	c0,5.511,4.888,10.128,11.49,11.001c0.447,0.095,1.056,0.295,1.21,0.678c0.139,0.347,0.091,0.89,0.045,1.241
	c0,0-0.161,0.97-0.196,1.177c-0.06,0.347-0.276,1.358,1.19,0.74c1.467-0.618,7.913-4.659,10.794-7.978h-0.001
	C27.773,17.597,28.727,15.381,28.727,12.92z M9.61,16.578H6.88c-0.396,0-0.72-0.323-0.72-0.721v-5.459
	c0-0.397,0.323-0.721,0.72-0.721c0.397,0,0.72,0.324,0.72,0.721v4.739h2.01c0.398,0,0.72,0.323,0.72,0.72
	C10.33,16.255,10.008,16.578,9.61,16.578z M12.433,15.856c0,0.398-0.323,0.721-0.72,0.721c-0.397,0-0.72-0.323-0.72-0.721v-5.459
	c0-0.397,0.323-0.721,0.72-0.721c0.397,0,0.72,0.324,0.72,0.721V15.856z M19.005,15.856c0,0.312-0.197,0.586-0.493,0.684
	c-0.074,0.025-0.151,0.037-0.229,0.037c-0.225,0-0.44-0.107-0.576-0.289l-2.798-3.81v3.377c0,0.398-0.323,0.721-0.72,0.721
	s-0.721-0.323-0.721-0.721v-5.459c0-0.31,0.198-0.585,0.493-0.684c0.074-0.024,0.151-0.037,0.229-0.037
	c0.225,0,0.44,0.107,0.575,0.289l2.798,3.811v-3.379c0-0.397,0.323-0.721,0.721-0.721s0.72,0.324,0.72,0.721V15.856z
	 M23.422,12.407c0.397,0,0.72,0.322,0.72,0.721c0,0.396-0.323,0.72-0.72,0.72h-2.009v1.289h2.009c0.396,0,0.72,0.323,0.72,0.72
	c0,0.398-0.324,0.721-0.72,0.721h-2.73c-0.396,0-0.72-0.323-0.72-0.721v-2.727c0,0,0,0,0-0.001c0,0,0-0.001,0-0.002V10.4
	c0-0.002,0-0.002,0-0.003c0-0.397,0.323-0.721,0.72-0.721h2.73c0.397,0,0.72,0.324,0.72,0.721c0,0.397-0.323,0.721-0.72,0.721
	h-2.009v1.289H23.422z"/>
</svg>
