<?xml version="1.0" encoding="UTF-8"?>
<svg id="_圖層_1" data-name=" 圖層 1" xmlns="http://www.w3.org/2000/svg" viewBox="0 0 16 16">
  <defs>
    <style>
      .cls-1 {
        fill: #0288d1;
      }

      .cls-1, .cls-2 {
        fill-rule: evenodd;
      }

      .cls-2 {
        fill: #f57c00;
      }
    </style>
  </defs>
  <path class="cls-2" d="M12.59,12.37c.19.34.38.68.56,1.02.07.15.2.22.38.22h2.13c.13,0,.22-.04.24-.11s.02-.16-.04-.28l-2.3-4.17-.98,1.77c-.27.49-.27,1.05,0,1.54M2.96,8.04L.13,13.22c-.05.11-.07.2-.04.28s.12.11.26.11h2.18c.18,0,.31-.07.39-.22.95-1.78,1.32-2.46,2.28-4.24l-2.24-1.1h0ZM7.76,4.36c.05-.08.11-.12.18-.12h.1c.08,0,.14.04.18.12,1.12,2.06,2.23,4.12,3.36,6.18l1.4-2.54-2.68-4.86c-.28-.5-.56-.84-.85-1.02-.29-.17-.65-.26-1.07-.26h-.99c-.36,0-.67.09-.94.26-.27.17-.54.51-.82,1.02l-2.12,3.89h2.82c.48-.89.96-1.78,1.43-2.67h0Z"/>
  <path class="cls-1" d="M7.76,11.63c.05.08.11.12.18.12h.1c.08,0,.14-.04.18-.12,1.63-3.01,2.24-4.17,3.9-7.17.07-.15.2-.22.38-.22h2.13c.13,0,.22.04.24.11s.02.16-.04.28l-4.54,8.23c-.28.5-.56.84-.85,1.02-.29.17-.65.26-1.07.26h-.99c-.36,0-.67-.09-.94-.26s-.54-.51-.82-1.02l-2.68-4.82h1.91c.6,0,1.13.31,1.41.85.74,1.37.12.21,1.48,2.75"/>
</svg>