<svg xmlns="http://www.w3.org/2000/svg" viewBox="0 0 36 36">
  <g id="Group_5" data-name="Group 5" transform="translate(-121 -175)">
    <g id="Ellipse_1" data-name="Ellipse 1" transform="translate(121 175)" fill="none" stroke="#a0c215" stroke-width="2">
      <circle cx="18" cy="18" r="18" stroke="none"/>
      <circle cx="18" cy="18" r="17" fill="none"/>
    </g>
    <g id="icon-mail2" transform="translate(129 181.5)">
      <path id="Path_3" data-name="Path 3" d="M18.745,4.5H2.832c-.336,0-.47.213-.2.5L4.51,6.838h0l1.679,1.7L9.681,12.01h0l.47.5a.873.873,0,0,0,1.142,0l4.432-4.322L18.947,5C19.215,4.713,19.148,4.5,18.745,4.5Z" transform="translate(-0.725)" fill="#a0c215"/>
      <path id="Path_4" data-name="Path 4" d="M20.338,7.333c0-.337-.2-.472-.475-.2L19.8,7.2l-8.067,7.345a2.428,2.428,0,0,1-3.322,0L.475,7.131C.2,6.928,0,7,0,7.4V18.586a.822.822,0,0,0,.814.809H19.525a.822.822,0,0,0,.814-.809V7.333Z" transform="translate(0 -0.725)" fill="#a0c215"/>
    </g>
  </g>
</svg>
