<svg viewBox="0 0 512 512" xmlns="http://www.w3.org/2000/svg" xmlns:xlink="http://www.w3.org/1999/xlink"><linearGradient id="linear-gradient" gradientUnits="userSpaceOnUse" x1="256" x2="256" y1="148.89" y2="253.38"><stop offset="0" stop-color="#49d0ff"/><stop offset="1" stop-color="#57b6fa"/></linearGradient><g id="Layer_2" data-name="Layer 2"><g id="Layer_2_copy_2" data-name="Layer 2 copy 2"><g id="_92" data-name="92"><circle id="background" cx="256" cy="256" fill="#fc5b6f" r="256"/><path d="m310.59 398.53a.92.92 0 0 1 -.91.92h-107.36a.91.91 0 0 1 -.91-.91.92.92 0 0 1 .58-.86 24.71 24.71 0 0 0 5.5-3 25.18 25.18 0 0 0 9.13-12.57l12.14-37.39h54.48l12.14 37.39a25.13 25.13 0 0 0 14.62 15.57.91.91 0 0 1 .59.85z" fill="#adaca7"/><rect fill="#8f908b" height="16.85" rx="8.42" width="204.66" x="153.67" y="395.13"/><rect fill="#ccc9c2" height="247.09" rx="22.26" width="312.81" x="99.6" y="106.03"/><path d="m121.85 106h268.3a22.25 22.25 0 0 1 22.25 22.25v168.29a0 0 0 0 1 0 0h-312.8a0 0 0 0 1 0 0v-168.26a22.25 22.25 0 0 1 22.25-22.28z" fill="#525b5a"/><path d="m117.48 124.52h277.04v152.13h-277.04z" fill="#bdf9ff"/><rect fill="#fff" height="20.09" rx="10.04" width="33.23" x="239.39" y="314.95"/><path d="m301.17 193.12c.1-1.2.17-2.41.17-3.64a40.6 40.6 0 0 0 -80.75-6 35 35 0 0 0 -34.85 35 35 35 0 0 0 34.95 34.95h75.21a30.36 30.36 0 0 0 30.36-30.43 30.36 30.36 0 0 0 -25.09-29.88z" fill="url(#linear-gradient)"/></g></g></g></svg>