<?xml version="1.0" encoding="UTF-8"?>
<svg id="Layer_1" xmlns="http://www.w3.org/2000/svg" xmlns:xlink="http://www.w3.org/1999/xlink" version="1.1" viewBox="0 0 512 512">
  <!-- Generator: Adobe Illustrator 29.1.0, SVG Export Plug-In . SVG Version: 2.1.0 Build 142)  -->
  <defs>
    <style>
      .st0 {
        fill: url(#_未命名的渐变);
        fill-rule: evenodd;
      }

      .st1 {
        fill: #fff;
      }
    </style>
    <linearGradient id="_未命名的渐变" data-name="未命名的渐变" x1=".2" y1="586.5" x2="512.2" y2="586.5" gradientTransform="translate(0 -330)" gradientUnits="userSpaceOnUse">
      <stop offset="0" stop-color="#00c2f3"/>
      <stop offset="1" stop-color="#4764af"/>
    </linearGradient>
  </defs>
  <rect class="st1" x="79.1" y="81.5" width="353" height="353"/>
  <path class="st0" d="M256.2.5c141.4,0,256,114.6,256,256s-114.6,256-256,256S.2,397.9.2,256.5,114.9.5,256.2.5h0ZM143.9,144.2c0,5.4,4.4,9.8,9.8,9.8h.3c5.4,0,9.9-4.3,9.9-9.7s-4.3-9.9-9.7-9.9h-.5c-5.4,0-9.8,4.4-9.8,9.8h0ZM175.1,144.2c0,5.4,4.4,9.8,9.8,9.8h.3c5.4,0,9.9-4.3,9.9-9.7s-4.3-9.9-9.7-9.9h-.5c-5.4,0-9.8,4.4-9.8,9.8h0ZM206.4,144.2c0,5.4,4.4,9.8,9.8,9.8h.3c5.4,0,9.8-4.5,9.7-9.9,0-5.4-4.4-9.7-9.7-9.7h-.3c-5.4,0-9.8,4.4-9.8,9.8h0ZM390.8,312.2c1.3,0,2.4-1.1,2.4-2.4v-120.5H119.3v120.5c0,1.3,1.1,2.4,2.4,2.4h43.1c5.4-50.5,50.8-87,101.3-81.6,43,4.6,77,38.6,81.6,81.6h43.1,0ZM316.6,361.8c6-9,9.8-19.2,11.3-29.9h-24.9c-.5,7.5-1.6,14.9-3.3,22.3,5.8,2.1,11.5,4.7,16.9,7.7h0ZM209.5,331.9h-24.9c1.5,10.7,5.3,20.9,11.3,29.9,5.5-3,11.1-5.5,16.9-7.7-1.7-7.3-2.9-14.8-3.3-22.3h0ZM196.1,282c-6.1,9.1-10,19.4-11.4,30.2h24.9c.5-7.6,1.6-15.1,3.4-22.5-5.8-2.1-11.4-4.7-16.9-7.7ZM221.2,267c2.2-4.3,4.8-8.3,7.9-12-7.1,2.9-13.7,6.9-19.5,11.8,3.2,1.6,6.4,3,9.7,4.2.6-1.4,1.3-2.7,1.9-4h0ZM293.2,271c3.3-1.2,6.5-2.6,9.7-4.2-5.8-4.9-12.4-8.9-19.5-11.8,3.1,3.7,5.7,7.7,7.9,12,.7,1.3,1.3,2.6,1.9,4h0ZM256.2,260.5c-6.1,0-12.5,5.8-17.6,15.7,11.7,2,23.6,2,35.2,0-5.1-9.9-11.5-15.7-17.6-15.7ZM229.3,312.2h54c-.4-5.8-1.3-11.5-2.6-17.2-16.1,3.2-32.6,3.2-48.7,0-1.3,5.7-2.2,11.4-2.6,17.2h0ZM256.2,346.5c8.2,0,16.4.8,24.4,2.4,1.3-5.6,2.2-11.3,2.6-17h-54c.4,5.7,1.3,11.4,2.6,17,8-1.6,16.2-2.4,24.4-2.4h0ZM256.2,383.6c6.1,0,12.6-5.9,17.7-15.9-11.7-2-23.7-2-35.4,0,5.1,10,11.6,15.9,17.7,15.9h0ZM293.3,372.8c-.7,1.4-1.3,2.9-2,4.2-2.2,4.3-4.8,8.3-7.9,12,7.2-2.9,13.8-7,19.7-12-3.2-1.6-6.5-3-9.8-4.2h0ZM221.2,377c-.7-1.4-1.4-2.8-2-4.2-3.3,1.2-6.6,2.6-9.8,4.2,5.9,5,12.6,9.1,19.7,12-3.1-3.7-5.7-7.7-7.9-12h0ZM303,312.2h24.9c-1.5-10.8-5.4-21.1-11.4-30.2-5.4,3-11.1,5.5-16.9,7.7,1.8,7.4,2.9,14.9,3.4,22.5h0ZM393.2,161.1h-121.8l-5.3,8.5h127.2v-8.5h-.1ZM121.7,118.7c-1.3,0-2.4,1.1-2.4,2.4v48.5h123.5l14.8-23.6c1.8-2.9,5-4.6,8.3-4.6h127.3v-20.3c0-1.3-1.1-2.4-2.4-2.4,0,0-269.1,0-269.1,0ZM390.8,99H121.7c-12.2,0-22.1,9.9-22.1,22.1v188.7c0,12.2,9.9,22.1,22.1,22.1h43.1c5.4,50.5,50.8,87,101.3,81.6,43-4.6,77-38.6,81.6-81.6h43.1c12.2,0,22.1-9.9,22.1-22.1V121.1c0-12.2-9.9-22.1-22.1-22.1h0Z"/>
</svg>