<svg xmlns="http://www.w3.org/2000/svg" viewBox="0 0 36 36">
  <g id="Group_7" data-name="Group 7" transform="translate(-315 -175)">
    <g id="Ellipse_5" data-name="Ellipse 5" transform="translate(315 175)" fill="none" stroke="#0bdc51" stroke-width="2">
      <circle cx="18" cy="18" r="18" stroke="none"/>
      <circle cx="18" cy="18" r="17" fill="none"/>
    </g>
    <path id="social-o-line" d="M22.239,10.288c0-4.7-4.708-8.517-10.5-8.517s-10.5,3.82-10.5,8.517c0,4.21,3.734,7.737,8.777,8.4.341.073.807.225.924.518a2.149,2.149,0,0,1,.034.948s-.123.741-.15.9c-.046.265-.211,1.037.909.565a33.84,33.84,0,0,0,8.245-6.094h0A7.571,7.571,0,0,0,22.239,10.288Zm-14.6,2.794H5.55A.551.551,0,0,1,5,12.531V8.361a.55.55,0,1,1,1.1,0v3.62H7.636a.55.55,0,0,1,0,1.1Zm2.156-.552a.55.55,0,1,1-1.1,0V8.36a.55.55,0,1,1,1.1,0Zm5.02,0a.551.551,0,0,1-.992.33L11.684,9.95v2.58a.55.55,0,1,1-1.1,0V8.36a.551.551,0,0,1,.377-.522.567.567,0,0,1,.175-.028.548.548,0,0,1,.439.221l2.137,2.911V8.36a.55.55,0,1,1,1.1,0V12.53ZM18.187,9.9a.55.55,0,0,1,0,1.1H16.652v.985h1.535a.55.55,0,0,1,0,1.1H16.1a.551.551,0,0,1-.55-.551V10.448h0V8.36a.551.551,0,0,1,.55-.551h2.085a.551.551,0,0,1,0,1.1H16.652V9.9Z" transform="translate(321.751 181.229)" fill="#0bdc51"/>
  </g>
</svg>
