<svg id="Layer_1" height="512" viewBox="0 0 512 512" width="512" xmlns="http://www.w3.org/2000/svg" xmlns:xlink="http://www.w3.org/1999/xlink" data-name="Layer 1"><linearGradient id="GradientFill_1" gradientUnits="userSpaceOnUse" x1=".248" x2="512.254" y1="256.5" y2="256.5"><stop offset="0" stop-color="#00c2f3"/><stop offset="1" stop-color="#4764af"/></linearGradient><path d="m256.247.5c141.384 0 256.007 114.62 256.007 256s-114.623 256-256.007 256-256-114.622-256-256 114.624-256 256-256zm-112.386 143.654a9.843 9.843 0 0 0 9.847 9.846h.292a9.844 9.844 0 1 0 0-19.687h-.294a9.85 9.85 0 0 0 -9.847 9.846zm31.248 0a9.846 9.846 0 0 0 9.847 9.846h.294a9.844 9.844 0 1 0 0-19.687h-.294a9.852 9.852 0 0 0 -9.847 9.846zm31.257 0a9.839 9.839 0 0 0 9.842 9.846h.3a9.844 9.844 0 0 0 0-19.687h-.3a9.846 9.846 0 0 0 -9.842 9.846zm184.459 168.037a2.423 2.423 0 0 0 2.391-2.395v-120.491h-273.93v120.495a2.423 2.423 0 0 0 2.395 2.395h43.13a91.969 91.969 0 0 1 182.88 0zm-74.254 49.609a71.83 71.83 0 0 0 11.284-29.925h-24.884a134.64 134.64 0 0 1 -3.349 22.263 125.5 125.5 0 0 1 16.949 7.662zm-107.036-29.921h-24.887a71.761 71.761 0 0 0 11.283 29.921 125.5 125.5 0 0 1 16.949-7.662 134.221 134.221 0 0 1 -3.345-22.263zm-13.45-49.854a71.8 71.8 0 0 0 -11.437 30.166h24.887a133.255 133.255 0 0 1 3.407-22.514 124.267 124.267 0 0 1 -16.857-7.652zm25.147-14.98a66.918 66.918 0 0 1 7.886-12.005 72.486 72.486 0 0 0 -19.5 11.82q4.74 2.334 9.679 4.185c.624-1.368 1.257-2.708 1.934-4zm71.972 4a105.319 105.319 0 0 0 9.679-4.185 72.447 72.447 0 0 0 -19.5-11.82 67 67 0 0 1 7.895 12.005c.668 1.292 1.31 2.632 1.929 4zm-36.957-10.554c-6.084 0-12.514 5.846-17.609 15.714a105.755 105.755 0 0 0 35.226 0c-5.094-9.868-11.525-15.714-17.617-15.714zm-26.984 51.7h53.977a113.949 113.949 0 0 0 -2.647-17.191 126.244 126.244 0 0 1 -48.684 0 114.461 114.461 0 0 0 -2.646 17.191zm26.984 34.294a127.128 127.128 0 0 1 24.395 2.361 114.43 114.43 0 0 0 2.6-16.967h-53.979a113.78 113.78 0 0 0 2.6 16.967 127.076 127.076 0 0 1 24.387-2.361zm0 37.09c6.136 0 12.606-5.93 17.722-15.921a106.7 106.7 0 0 0 -35.432 0c5.112 9.991 11.582 15.921 17.71 15.921zm37.063-10.775c-.651 1.442-1.323 2.862-2.035 4.228a67.053 67.053 0 0 1 -7.895 12 72.3 72.3 0 0 0 19.732-12.009 105.317 105.317 0 0 0 -9.8-4.215zm-72.078 4.228c-.717-1.366-1.385-2.786-2.04-4.228a106.436 106.436 0 0 0 -9.806 4.215 72.419 72.419 0 0 0 19.732 12.009 66.976 66.976 0 0 1 -7.886-12zm81.739-64.834h24.884a71.764 71.764 0 0 0 -11.442-30.166 124 124 0 0 1 -16.853 7.652 134.066 134.066 0 0 1 3.411 22.514zm90.245-151.094h-121.809l-5.345 8.514h127.154zm-271.535-42.414a2.423 2.423 0 0 0 -2.395 2.391v48.54h123.528l14.813-23.595a9.843 9.843 0 0 1 8.338-4.607h127.251v-20.338a2.422 2.422 0 0 0 -2.391-2.391zm269.144-19.686h-269.144a22.106 22.106 0 0 0 -22.081 22.077v188.723a22.107 22.107 0 0 0 22.083 22.083h43.13a91.969 91.969 0 0 0 182.88 0h43.134a22.106 22.106 0 0 0 22.073-22.083v-188.723a22.105 22.105 0 0 0 -22.075-22.077z" fill="url(#GradientFill_1)" fill-rule="evenodd"/></svg>