<svg id="Layer_1" enable-background="new 0 0 512 512" height="512" viewBox="0 0 512 512" width="512" xmlns="http://www.w3.org/2000/svg"><circle cx="256" cy="256" fill="#87c7ff" r="256"/><path d="m512 256c0-4.647-.124-9.266-.369-13.852l-88.362-88.362-19.512 42.531-81.325-81.325-240.249 248.466 147.172 147.172c8.758.906 17.647 1.37 26.645 1.37 141.385 0 256-114.615 256-256z" fill="#4a98f7"/><path d="m396.118 142.709h-57.381l-16.304-27.717h-86.138l-16.304 27.717h-104.109c-21.441 0-38.822 17.381-38.822 38.822v149.647c0 21.441 17.381 38.822 38.822 38.822h280.236c21.441 0 38.822-17.381 38.822-38.822v-149.647c0-21.441-17.381-38.822-38.822-38.822z" fill="#555a66"/><path d="m77.06 255.818v75.36c0 21.441 17.381 38.822 38.822 38.822h280.235c21.441 0 38.822-17.381 38.822-38.822v-75.36z" fill="#333940"/><path d="m150.773 370h-53.863c-10.963 0-19.85-8.887-19.85-19.85v-187.591c0-10.963 8.887-19.85 19.85-19.85h53.863c10.963 0 19.85 8.887 19.85 19.85v187.591c0 10.963-8.887 19.85-19.85 19.85z" fill="#333940"/><path d="m77.06 255.818v94.332c0 10.963 8.887 19.85 19.85 19.85h53.863c10.963 0 19.85-8.887 19.85-19.85v-94.332z" fill="#121416"/><circle cx="302.878" cy="256.965" fill="#e9edf5" r="97.238"/><path d="m205.654 255.818c-.005.383-.015.764-.015 1.147 0 53.703 43.535 97.238 97.238 97.238s97.238-43.535 97.238-97.238c0-.384-.01-.765-.014-1.147z" fill="#cdd2e1"/><circle cx="302.878" cy="256.965" fill="#636978" r="68.744"/><path d="m234.163 255.818c-.006.383-.029.763-.029 1.147 0 37.966 30.778 68.744 68.744 68.744s68.744-30.778 68.744-68.744c0-.385-.023-.764-.029-1.147z" fill="#414952"/><circle cx="302.878" cy="256.965" fill="#333940" r="48.6"/><path d="m254.307 255.818c-.009.383-.029.763-.029 1.147 0 26.841 21.759 48.6 48.6 48.6s48.6-21.759 48.6-48.6c0-.385-.02-.765-.029-1.147z" fill="#121416"/><circle cx="284.395" cy="237.679" fill="#fff" r="12.858"/><path d="m383.508 325.709h36.967v22.234h-36.967z" fill="#bec3d2"/></svg>