<?xml version="1.0" encoding="UTF-8"?>
<svg id="_图层_1" xmlns="http://www.w3.org/2000/svg" version="1.1" viewBox="0 0 30 30">
  <!-- Generator: Adobe Illustrator 29.1.0, SVG Export Plug-In . SVG Version: 2.1.0 Build 142)  -->
  <defs>
    <style>
      .st0 {
        fill: #eaeaea;
      }
    </style>
  </defs>
  <path class="st0" d="M28.8,13c0-6.2-6.2-11.2-13.8-11.2S1.3,6.8,1.3,13s4.9,10.1,11.5,11c.4,0,1.1.3,1.2.7.1.3,0,.9,0,1.2,0,0-.2,1-.2,1.2,0,.3-.3,1.4,1.2.7,1.5-.6,7.9-4.7,10.8-8h0c2-2.2,2.9-4.4,2.9-6.9h.1ZM9.6,16.6h-2.7c-.4,0-.7-.3-.7-.7v-5.5c0-.4.3-.7.7-.7s.7.3.7.7v4.7h2c.4,0,.7.3.7.7s-.3.7-.7.7h0ZM12.5,15.9c0,.4-.3.7-.7.7s-.7-.3-.7-.7v-5.5c0-.4.3-.7.7-.7s.7.3.7.7c0,0,0,5.5,0,5.5ZM19,15.9c0,.3-.2.6-.5.7h-.2c-.2,0-.4-.1-.6-.3l-2.8-3.8v3.4c0,.4-.3.7-.7.7s-.7-.3-.7-.7v-5.5c0-.3.2-.6.5-.7h.2c.2,0,.4.1.6.3l2.8,3.8v-3.4c0-.4.3-.7.7-.7s.7.3.7.7c0,0,0,5.5,0,5.5ZM23.5,12.4c.4,0,.7.3.7.7s-.3.7-.7.7h-2v1.3h2c.4,0,.7.3.7.7s-.3.7-.7.7h-2.7c-.4,0-.7-.3-.7-.7v-2.7h0v-2.7c0-.4.3-.7.7-.7h2.7c.4,0,.7.3.7.7s-.3.7-.7.7h-2v1.3s2,0,2,0Z"/>
</svg>