<svg viewBox="0 0 512 512" xmlns="http://www.w3.org/2000/svg" xmlns:xlink="http://www.w3.org/1999/xlink"><linearGradient id="linear-gradient" gradientUnits="userSpaceOnUse" x1="74.98" x2="437.02" y1="74.98" y2="437.02"><stop offset="0" stop-color="#65e0db"/><stop offset="1" stop-color="#2db0a2"/></linearGradient><linearGradient id="linear-gradient-2" gradientUnits="userSpaceOnUse" x1="158.21" x2="444.2" y1="143.85" y2="429.83"><stop offset="0" stop-color="#1c8e7d"/><stop offset="1" stop-color="#1c8e7d" stop-opacity="0"/></linearGradient><g id="Layer_2" data-name="Layer 2"><g id="Layer_2_copy_6" data-name="Layer 2 copy 6"><g id="_4" data-name="4"><circle id="background" cx="256" cy="256" fill="url(#linear-gradient)" r="256"/><path d="m511.6 270.32c-6.68 121.2-97.67 219.93-215.31 238.52l-126.29-126.28-1.8-17.4-45.3-45.31-4.4-11.68v-101.73l3.07-10 14.65-7.75 27.28 3.87v-40.74l6.5-19.76 26.83-13.56h154.73l14 5.81z" fill="url(#linear-gradient-2)"/><g fill="#fff"><path d="m390.3 149-24.7-24.7a19.85 19.85 0 0 0 -14-5.81h-154.77a33.32 33.32 0 0 0 -33.33 33.32v32.9h162.29a21.75 21.75 0 0 1 21.73 21.72v101.74a21.76 21.76 0 0 1 -21.73 21.73h-162.29v32.89a33.32 33.32 0 0 0 33.33 33.32h166a33.32 33.32 0 0 0 33.32-33.32v-199.74a19.89 19.89 0 0 0 -5.85-14.05z"/><path d="m208.29 264.75h20.37l-10.28-28.14z"/><path d="m343.52 308.17v-101.73a17.72 17.72 0 0 0 -17.73-17.72h-189.57a17.72 17.72 0 0 0 -17.72 17.72v101.73a17.72 17.72 0 0 0 17.72 17.73h189.57a17.73 17.73 0 0 0 17.73-17.73zm-95.12-17.59a6.53 6.53 0 0 1 -4.77 2 6.18 6.18 0 0 1 -2.79-.58 5.76 5.76 0 0 1 -2-1.58 14.48 14.48 0 0 1 -1.7-3.07c-.6-1.38-1.12-2.59-1.55-3.65l-3.26-8.55h-27.66l-3.26 8.74a30.86 30.86 0 0 1 -3.25 6.9c-.9 1.2-2.38 1.79-4.42 1.79a6.49 6.49 0 0 1 -4.61-1.9 5.85 5.85 0 0 1 -2-4.33 9.61 9.61 0 0 1 .46-2.88q.47-1.49 1.53-4.14l17.45-44.33q.75-1.91 1.79-4.58a23.46 23.46 0 0 1 2.23-4.44 9.13 9.13 0 0 1 3.12-2.86 11.07 11.07 0 0 1 9.58 0 9.41 9.41 0 0 1 3.12 2.81 19.62 19.62 0 0 1 2 3.7q.82 2 2.07 5.28l17.81 44q2.1 5 2.1 7.3a6 6 0 0 1 -1.99 4.37zm26.48-6.44q0 4.23-1.93 6.32a6.51 6.51 0 0 1 -5 2.09 6.35 6.35 0 0 1 -4.91-2.11q-1.94-2.12-1.93-6.3v-53.71q0-4.19 1.91-6.28a6.37 6.37 0 0 1 4.93-2.09 6.57 6.57 0 0 1 5 2.07q1.94 2.07 1.93 6.3z"/></g></g></g></g></svg>