<svg xmlns="http://www.w3.org/2000/svg" width="108.7" height="36.495" viewBox="0 0 108.7 36.495">
  <g id="Group_2959" data-name="Group 2959" transform="translate(-4014 -4961)">
    <path id="Path_9384" data-name="Path 9384" d="M45,37.3a1.025,1.025,0,0,1-1-1V27.1a.9.9,0,0,1,1.8,0v8.7h3.9c.5,0,.7.2.7.7s-.2.7-.7.7H47.2l-2.2.1Z" transform="translate(4014 4948.878)" fill="#fff"/>
    <path id="Path_9385" data-name="Path 9385" d="M53.3,37.3a.8.8,0,0,1-.9-.9V27.1a.9.9,0,0,1,1.8,0v9.3A.8.8,0,0,1,53.3,37.3Z" transform="translate(4014 4948.878)" fill="#fff"/>
    <path id="Path_9386" data-name="Path 9386" d="M57.9,37.3a.736.736,0,0,1-.8-.8V27.2a.908.908,0,0,1,.3-.7,1.549,1.549,0,0,1,.8-.2,1.1,1.1,0,0,1,1,.5l3.4,6,1.2,2.3h.1a2.252,2.252,0,0,0-.1-.7c-.1-1.4-.2-2.4-.2-3V27.1a.8.8,0,0,1,1.6,0v9.3a.908.908,0,0,1-.3.7,1.549,1.549,0,0,1-.8.2,1.1,1.1,0,0,1-1-.5l-3.4-6-1.2-2.3h-.1a1.952,1.952,0,0,0,.1.7c.1,1.3.2,2.3.2,2.9v4.4A.736.736,0,0,1,57.9,37.3Z" transform="translate(4014 4948.878)" fill="#fff"/>
    <path id="Path_9387" data-name="Path 9387" d="M69,37.3a1.025,1.025,0,0,1-1-1V27.2a1.025,1.025,0,0,1,1-1h4.8c.5,0,.7.2.7.7s-.2.7-.7.7H69.7v3.1H73c.5,0,.7.2.7.7s-.2.7-.7.7H69.7v3.6h4.2c.5,0,.7.2.7.7s-.2.7-.7.7H69Z" transform="translate(4014 4948.878)" fill="#fff"/>
    <path id="Path_9388" data-name="Path 9388" d="M80.5,38.6c-.6,0-1-.2-1.1-.6-.2-.6.2-.9,1-.9h.4a.265.265,0,0,0,.3-.3V33H78.8a24,24,0,0,1-.9,4.9.7.7,0,0,1-.4.5c-.2.1-.3,0-.6-.1-.2-.1-.3-.3-.4-.4a1.268,1.268,0,0,1,.1-.6,16.759,16.759,0,0,0,.8-3.8c.1-1,.1-2.3.1-3.8v-5a1.032,1.032,0,0,1,1.1-1.1h2.8a1.032,1.032,0,0,1,1.1,1.1V36.8q0,1.2-.6,1.5A2.42,2.42,0,0,1,80.5,38.6Zm-1.7-7.1H81V29H78.8v.7A5.29,5.29,0,0,1,78.8,31.5Zm.1-4h2.2v-2c0-.3-.1-.4-.4-.4H79.4c-.3,0-.4.1-.4.4l-.1,2ZM90.4,38.2a10.455,10.455,0,0,1-1.9-1.7,9.266,9.266,0,0,1-1.4,1.4.882.882,0,0,1-.8.2,1.157,1.157,0,0,1-.7-.5l-.1-.1a.1.1,0,0,1-.1-.1v.5c0,.5-.2.7-.7.7s-.7-.2-.7-.7V24.8a1.032,1.032,0,0,1,1.1-1.1h5.1a1.032,1.032,0,0,1,1.1,1.1V27a2,2,0,0,1-.2.9,1.024,1.024,0,0,1-.6.5,7.135,7.135,0,0,1-1.9.2,1,1,0,0,1-1-.5c-.2-.5.1-.8.9-.8h.9a.367.367,0,0,0,.3-.1c.1-.1.1-.1.1-.2V25.6c0-.3-.1-.4-.4-.4H85.6c-.3,0-.4.1-.4.4v3.9h5.1a.984.984,0,0,1,.8.3c.2.2.2.6.1,1.1a14.2,14.2,0,0,1-1.9,4.5A8.631,8.631,0,0,0,91.1,37c.3.2.5.3.5.5.1.2,0,.4-.2.6C91.2,38.5,90.8,38.5,90.4,38.2Zm-4.9-1a8.412,8.412,0,0,0,2.1-1.8,18.889,18.889,0,0,1-2.1-4.5h-.3v6Q85.2,37.35,85.5,37.2Zm2.9-3a12.78,12.78,0,0,0,1.3-2.9c.1-.3,0-.4-.3-.4H86.8A12.617,12.617,0,0,0,88.4,34.2Z" transform="translate(4014 4948.878)" fill="#fff"/>
    <path id="Path_9389" data-name="Path 9389" d="M94.8,37.9c-.2-.6.1-.9.9-.8H96c.1,0,.2,0,.2-.1a.349.349,0,0,0,.1-.2V32.2a20.382,20.382,0,0,1-1.6,3,.723.723,0,0,1-.6.4c-.2,0-.3-.2-.5-.5a1.421,1.421,0,0,1-.2-.6c0-.2.1-.3.3-.5a12.639,12.639,0,0,0,2.1-3.6H94.2c-.5,0-.7-.2-.7-.7s.2-.7.7-.7h3.6A13.879,13.879,0,0,0,95,27.4c-.5-.2-.6-.6-.2-1a.627.627,0,0,1,.8-.2c.2.1.6.3,1.1.5a9.266,9.266,0,0,0,1.4-1.4H94.3a.7.7,0,0,1,0-1.4h4.8c.4,0,.7.1.8.3a1.228,1.228,0,0,1-.1,1,12.025,12.025,0,0,1-1.9,2.1,9.224,9.224,0,0,1,.8.5c.2.1.2.3.3.5,0,.2-.1.3-.2.5l-.2.2h1.3a.845.845,0,0,1,.6.2.758.758,0,0,1,.1.7h0a10.176,10.176,0,0,0,2.6-1.1,11.92,11.92,0,0,1-1.5-1.8l-.5.5a.769.769,0,0,1-1,.1.65.65,0,0,1,0-1.2,8.26,8.26,0,0,0,2.1-2.8.7.7,0,0,1,1-.4.668.668,0,0,1,.5,1c0,.1-.1.2-.2.3s-.1.2-.2.3H108a.7.7,0,0,1,0,1.4h-.5a7.72,7.72,0,0,1-1.9,2.7,12.238,12.238,0,0,0,2.3,1c.7.2.9.6.5,1.1a1.068,1.068,0,0,1-1.1.3,13.787,13.787,0,0,1-3-1.4,10.359,10.359,0,0,1-2.8,1.3.846.846,0,0,1-.7,0,1,1,0,0,1-.5-.4h0c-.3,1-.5,1.7-.7,2.2-.1.3-.4.4-.8.2-.3-.2-.5-.4-.3-.7.1-.4.3-.9.5-1.7.1-.3,0-.4-.3-.4h-.9v6.5a2.22,2.22,0,0,1-.1.9,1.205,1.205,0,0,1-.5.5,3.918,3.918,0,0,1-1.3.2C95.3,38.6,94.9,38.4,94.8,37.9Zm4.6.2c-.4-.5-.1-.9.6-1.2a5.334,5.334,0,0,0,2.6-3.1h-1.7a.632.632,0,0,1-.7-.7c0-.5.2-.7.7-.7h2c0-.2.1-.4.1-.8v-.1c.1-.5.3-.7.8-.7s.8.3.7.8c0,.3-.1.6-.1.8h2.9c.6,0,.8.5.7,1.6-.1,1.2-.3,2.1-.4,2.7a2.255,2.255,0,0,1-.5,1.2,1.626,1.626,0,0,1-1.1.5h-1.1a.924.924,0,0,1-1-.6c-.2-.6.1-.9.9-.8h.4a.764.764,0,0,0,.5-.2,5.54,5.54,0,0,0,.7-2.4v-.6c0-.1-.1-.1-.3-.1h-2a6.552,6.552,0,0,1-3.6,4.5A.708.708,0,0,1,99.4,38.1Zm4.9-10.2a5.533,5.533,0,0,0,1.4-1.9h-3.1A6.268,6.268,0,0,0,104.3,27.9Z" transform="translate(4014 4948.878)" fill="#fff"/>
    <path id="social-o-line" d="M38.4,15.9C38.4,7.3,29.8.3,19.2.3S0,7.3,0,15.9c0,7.7,6.8,14.2,16.1,15.4.6.1,1.5.4,1.7.9a5.013,5.013,0,0,1,.1,1.7,14.25,14.25,0,0,1-.3,1.6c-.1.5-.4,1.9,1.7,1,2-.9,11.1-6.5,15.1-11.1h0A13.862,13.862,0,0,0,38.4,15.9Z" transform="translate(4014 4960.7)" fill="#fff"/>
    <path id="Path_9390" data-name="Path 9390" d="M18.1,21.1a1,1,0,0,0,1-1V15.4L23,20.7a1.234,1.234,0,0,0,.8.4,1,1,0,0,0,1-1V12.4a1.075,1.075,0,0,0-1-1,1,1,0,0,0-1,1v4.7l-3.9-5.3a.909.909,0,0,0-.8-.4c-.1,0-.2.1-.3.1a1.2,1.2,0,0,0-.7,1v7.6A1.075,1.075,0,0,0,18.1,21.1Z" transform="translate(4014 4960.7)" fill="#00b800"/>
    <path id="Path_9391" data-name="Path 9391" d="M27.2,21H31a1.075,1.075,0,0,0,1-1,1,1,0,0,0-1-1H28.2V17.2H31a1.075,1.075,0,0,0,1-1,1,1,0,0,0-1-1H28.2V13.4H31a1,1,0,0,0,0-2H27.2a1,1,0,0,0-1,1V20A1,1,0,0,0,27.2,21Z" transform="translate(4014 4960.7)" fill="#00b800"/>
    <path id="Path_9392" data-name="Path 9392" d="M14.6,21.1a1,1,0,0,0,1-1V12.5a1.075,1.075,0,0,0-1-1,1,1,0,0,0-1,1v7.6A1,1,0,0,0,14.6,21.1Z" transform="translate(4014 4960.7)" fill="#00b800"/>
    <path id="Path_9393" data-name="Path 9393" d="M7.9,21.1h3.8a1.075,1.075,0,0,0,1-1,1,1,0,0,0-1-1H8.9V12.5a1.075,1.075,0,0,0-1-1,1,1,0,0,0-1,1v7.6A1,1,0,0,0,7.9,21.1Z" transform="translate(4014 4960.7)" fill="#00b800"/>
  </g>
</svg>
