<?xml version="1.0" encoding="UTF-8"?>
<svg id="_圖層_1" xmlns="http://www.w3.org/2000/svg" version="1.1" viewBox="0 0 180 48">
  <!-- Generator: Adobe Illustrator 29.5.1, SVG Export Plug-In . SVG Version: 2.1.0 Build 141)  -->
  <defs>
    <style>
      .st0 {
        fill: #0288d1;
      }

      .st0, .st1 {
        fill-rule: evenodd;
      }

      .st2 {
        isolation: isolate;
      }

      .st1 {
        fill: #f57c00;
      }

      .st3 {
        fill: #333;
      }

      .st4 {
        display: none;
        fill: #585757;
      }
    </style>
  </defs>
  <rect class="st4" x="-3.4" y="36.1" width="169.6" height="11.7"/>
  <g>
    <g>
      <path class="st1" d="M43.32,38.31c.61,1.12,1.23,2.23,1.84,3.35.22.48.64.71,1.26.71h6.98c.44,0,.71-.12.8-.36s.05-.54-.14-.91l-7.53-13.67-3.21,5.81c-.9,1.62-.9,3.44,0,5.06M11.76,24.14L2.5,41.11c-.18.37-.23.67-.14.91s.38.36.85.36h7.15c.59,0,1.01-.24,1.27-.71,3.12-5.84,4.32-8.06,7.46-13.9l-7.33-3.62h0ZM27.51,12.09c.15-.26.35-.38.6-.38h.33c.26,0,.46.13.6.38,3.66,6.75,7.32,13.51,11,20.25l4.6-8.32-8.78-15.94c-.92-1.65-1.85-2.76-2.8-3.33-.95-.57-2.13-.85-3.52-.85h-3.24c-1.17,0-2.2.28-3.08.85-.88.57-1.78,1.68-2.69,3.33l-6.96,12.76h9.25c1.57-2.91,3.14-5.83,4.7-8.75h-.01Z"/>
      <path class="st0" d="M27.51,35.91c.15.26.35.38.6.38h.33c.26,0,.46-.13.6-.38,5.35-9.87,7.35-13.66,12.77-23.5.22-.48.64-.71,1.26-.71h6.98c.44,0,.71.12.8.36s.05.54-.14.91l-14.86,26.96c-.92,1.65-1.85,2.76-2.8,3.33-.95.57-2.13.85-3.52.85h-3.24c-1.17,0-2.2-.28-3.08-.85s-1.78-1.68-2.69-3.33l-8.77-15.78h6.27c1.98,0,3.69,1.02,4.62,2.77,2.41,4.5.4.68,4.85,9"/>
    </g>
    <g>
      <g class="st2">
        <g class="st2">
          <path class="st3" d="M61.07,12.7l1.13-1.55h1.52c.36,0,.79,0,1.07.02-.16-.22-.42-.59-.61-.88l-1.08-1.6-2.84,4.01h-2.21l3.88-5.46c.25-.35.62-.68,1.21-.68s.93.3,1.19.68l3.78,5.46h-7.03Z"/>
          <path class="st3" d="M72.94,8.91c.53.93.77,1.38.98,1.81.2-.42.43-.87.97-1.8l.97-1.72c.22-.39.54-.64,1.03-.64s.88.27,1.05.83l1.53,5.31h-1.86l-.57-2.1c-.19-.69-.32-1.17-.42-1.66-.2.42-.42.88-.84,1.67l-.81,1.52c-.32.6-.62.68-1.07.68s-.76-.08-1.08-.68l-.81-1.53c-.44-.83-.66-1.26-.85-1.66-.09.48-.23.98-.41,1.66l-.57,2.1h-1.83l1.56-5.31c.16-.56.59-.83,1.06-.83s.8.24,1.02.64l.97,1.71Z"/>
          <path class="st3" d="M87.66,12.7h-4.05v-3.77h1.88v2.21h2.17c1.04,0,1.79-.58,1.79-1.45s-.78-1.47-1.79-1.47h-4.05l1.19-1.57h2.85c2.11,0,3.64,1.22,3.64,2.96s-1.55,3.08-3.64,3.08Z"/>
          <path class="st3" d="M99.27,11.15l-1.2,1.55h-5.82v-6.04h7l-1.21,1.57h-3.91v.72h4.79l-1.08,1.37h-3.71v.82h5.14Z"/>
          <path class="st3" d="M101.75,6.66l2.72,4.01,2.84-4.01h2.2l-3.87,5.46c-.26.35-.63.68-1.21.68s-.93-.3-1.19-.68l-3.79-5.46h2.29Z"/>
          <path class="st3" d="M117.2,11.15l-1.2,1.55h-5.82v-6.04h7l-1.21,1.57h-3.91v.72h4.79l-1.08,1.37h-3.71v.82h5.14Z"/>
          <path class="st3" d="M124.4,11.15l-1.21,1.55h-5.34v-6.04h1.87v4.49h4.68Z"/>
          <path class="st3" d="M133.43,9.67c0,2.16-1.48,3.13-4.42,3.13s-4.42-.97-4.42-3.13,1.47-3.12,4.42-3.12,4.42.96,4.42,3.12ZM131.57,9.67c0-1.3-.68-1.54-2.56-1.54s-2.56.24-2.56,1.54.68,1.55,2.56,1.55,2.56-.25,2.56-1.55Z"/>
          <path class="st3" d="M139.4,11.16h-3.16v1.54h-1.86v-3.09h5.2c.58,0,.91-.28.91-.7s-.33-.69-.91-.69h-5.2l1.24-1.57h3.79c1.87,0,2.96.92,2.96,2.27s-1.09,2.23-2.97,2.23Z"/>
          <path class="st3" d="M146.98,8.91c.53.93.77,1.38.98,1.81.2-.42.43-.87.97-1.8l.97-1.72c.22-.39.54-.64,1.03-.64s.88.27,1.05.83l1.53,5.31h-1.86l-.57-2.1c-.19-.69-.32-1.17-.42-1.66-.2.42-.42.88-.84,1.67l-.81,1.52c-.32.6-.62.68-1.07.68s-.76-.08-1.08-.68l-.81-1.53c-.44-.83-.66-1.26-.85-1.66-.09.48-.23.98-.41,1.66l-.57,2.1h-1.83l1.56-5.31c.16-.56.59-.83,1.06-.83s.8.24,1.02.64l.97,1.71Z"/>
          <path class="st3" d="M161.21,11.15l-1.2,1.55h-5.82v-6.04h7l-1.21,1.57h-3.91v.72h4.79l-1.08,1.37h-3.71v.82h5.14Z"/>
          <path class="st3" d="M167.23,12.47l-3.7-3.32v3.55h-1.7v-5.01c0-.8.49-1.13,1.02-1.13.23,0,.45.05.75.33l3.7,3.32v-3.55h1.71v5c0,.8-.49,1.14-1.03,1.14-.24,0-.46-.05-.75-.33Z"/>
          <path class="st3" d="M177.62,6.66l-1.21,1.57h-2.16v4.47h-1.87v-4.47h-2.84l1.21-1.57h6.87Z"/>
        </g>
        <g class="st2">
          <path class="st3" d="M62.24,19.77h3.87v3.78h-4.15c-2.1,0-3.64-1.33-3.64-3.08s1.54-2.96,3.64-2.96h4.33l-1.21,1.57h-3.12c-1.01,0-1.78.61-1.78,1.47s.74,1.45,1.78,1.45h2.29v-.88h-3.13l1.12-1.35Z"/>
          <path class="st3" d="M75.76,23.55h-2.5l-1.35-1.6h-2.87v1.6h-1.87v-3.09h5.26c.58,0,1.03-.26,1.03-.68,0-.47-.39-.71-1.03-.71h-5.26l1.22-1.57h3.88c1.37,0,3.11.43,3.11,2.16,0,.94-.59,1.72-1.58,1.92.21.15.43.37.85.79l1.11,1.17Z"/>
          <path class="st3" d="M84.86,20.52c0,2.16-1.48,3.13-4.42,3.13s-4.42-.97-4.42-3.13,1.47-3.12,4.42-3.12,4.42.96,4.42,3.12ZM83,20.52c0-1.3-.68-1.54-2.56-1.54s-2.56.24-2.56,1.54.68,1.55,2.56,1.55,2.56-.25,2.56-1.55Z"/>
          <path class="st3" d="M93.67,20.91c0,1.83-1.26,2.74-3.77,2.74-2.91,0-4.16-.91-4.16-2.74v-3.41h1.86v3.41c0,.89.38,1.18,2.3,1.18,1.44,0,1.89-.33,1.89-1.18v-3.41h1.88v3.41Z"/>
          <path class="st3" d="M99.74,22h-3.16v1.54h-1.86v-3.09h5.2c.58,0,.91-.28.91-.7s-.33-.69-.91-.69h-5.2l1.24-1.57h3.79c1.87,0,2.96.92,2.96,2.27s-1.09,2.23-2.97,2.23Z"/>
          <path class="st3" d="M113.67,22l-1.21,1.55h-5.34v-6.04h1.87v4.49h4.68Z"/>
          <path class="st3" d="M120.67,17.51l-1.21,1.57h-2.16v4.47h-1.87v-4.47h-2.84l1.21-1.57h6.87Z"/>
          <path class="st3" d="M124.69,23.55h-4.05v-3.77h1.88v2.21h2.17c1.04,0,1.79-.58,1.79-1.45s-.78-1.47-1.79-1.47h-4.05l1.19-1.57h2.85c2.11,0,3.64,1.22,3.64,2.96s-1.54,3.08-3.64,3.08Z"/>
          <path class="st3" d="M130.11,21.9c.57,0,1.02.33,1.02.89s-.45.87-1.02.87-1.01-.32-1.01-.87.45-.89,1.01-.89Z"/>
        </g>
      </g>
      <g class="st2">
        <g class="st2">
          <path class="st3" d="M64.93,40.76c-.09-.53-.16-.82-.27-1.2l-.3-.94h-3.17l-.3.94c-.14.44-.22.79-.28,1.2h-2.6c.17-.33.27-.6.53-1.36l2.4-6.69c.2-.54.3-.88.36-1.2h2.9c.08.32.16.61.38,1.2l2.41,6.69c.21.59.39,1.04.53,1.36h-2.6ZM62.76,33.42l-1.03,3.33h2.09l-1.06-3.33Z"/>
          <path class="st3" d="M73.45,40.76c-.06-.39-.18-.8-.48-1.64l-1.02-2.96c-.01-.06-.34-1.09-.38-1.18q-.12-.4-.18-.56c.07.7.11,1.61.11,2.2v2.41c0,.77.02,1.25.09,1.72h-2.19c.07-.5.09-.97.09-1.72v-5.79c0-.67-.03-1.25-.09-1.73h2.93c.08.48.17.83.42,1.57l1.67,4.79,1.66-4.79c.26-.74.34-1.1.41-1.57h2.94c-.07.53-.09.99-.09,1.73v5.79c0,.84.02,1.28.09,1.72h-2.19c.07-.51.09-.93.09-1.72v-2.42c0-.27.03-1.1.06-1.44q.03-.59.04-.75c-.24.87-.36,1.27-.5,1.67l-1.08,3.04c-.28.79-.42,1.28-.48,1.63h-1.93Z"/>
          <path class="st3" d="M87.1,37.3h2.93c.39,0,.58-.01.72-.03l.82.78c-.09.1-.12.14-.26.33-.42.58-.71.91-1.16,1.32.74.14,1.16.2,1.89.24-.34.58-.5.94-.66,1.54-1.15-.19-1.91-.4-2.77-.78-.79.38-1.31.55-2.35.78-.17-.57-.3-.89-.56-1.32-.23,1.11-.54,1.28-2.31,1.28-.19,0-.34,0-.66-.02-.08-.63-.16-.99-.36-1.6.51.1.97.14,1.37.14.29,0,.4-.04.46-.18.06-.13.09-.36.1-.72h-1.96c-.28,0-.34,0-.69.02.27-.79.43-1.68.5-2.55,0-.02.01-.19.02-.5.28.02.49.03.91.03h1.22v-.51h-.42c-.34,0-.53.01-.77.03v-.2c-.37.14-.56.21-1.03.34-.24-.68-.38-.94-.72-1.47.69-.16,1.1-.27,1.68-.5-.39-.4-.81-.78-1.33-1.18l1.17-.93c.27.22.33.29.56.49v-1.04c.3.04.51.06,1.06.06h2.12c.47,0,.66-.01.92-.04.14.4.24.57.58.92.33-.33.57-.6.7-.84t.04-.09l1.29.74c-.21.29-.64.78-.94,1.09.18.11.24.16.41.26.43-.41.6-.62.88-1.08l1.28.75c-.22.28-.6.67-.89.94.42.17.64.23,1.2.37-.34.48-.53.83-.71,1.37.18.07.24.09.46.14-.06.67-.13.9-.33,1.07-.23.21-.64.29-1.42.29-1.23,0-1.51-.11-1.51-.6v-.97h-.72c-.1.74-.39,1.31-.93,1.82h.18ZM86.17,37.25c.16.02.2.03.41.03-.23-.29-.43-.48-.76-.72,0,.38.01.54.04.74-.24-.02-.37-.02-.87-.02h-1.39q-.03.24-.09.51h1.58c.38,0,.59-.01.82-.03-.02.17-.02.22-.03.47-.03.9-.07,1.3-.14,1.81.61-.07.82-.1,1.34-.24-.3-.22-.44-.36-.81-.75l.98-.52h-.2c-.43,0-.63.01-.89.04v-1.31ZM84.11,32.41c-.12,0-.19,0-.37.01q.37.36.64.64c.3-.2.46-.33.8-.66h-1.08ZM85.83,36.27c.49-.42.73-.99.73-1.73,0-.12,0-.17-.02-.31.24.02.37.03.72.03h1.33c-.8-.57-1.19-.93-1.77-1.66-.64.78-1.1,1.22-1.83,1.75.39,0,.59-.01.88-.03-.03.24-.04.47-.04.86v1.09ZM87.66,38.52c.31.28.52.42.97.66.3-.19.47-.32.86-.66h-1.82ZM89.94,35.69c0,.16.07.19.34.19.33,0,.36-.02.38-.5-.28-.11-.46-.19-.72-.32v.63Z"/>
          <path class="st3" d="M103.57,38.49q-.12.11-.61.58c-.2.2-.29.28-.4.38.56.2.99.3,1.79.41-.41.64-.54.91-.82,1.63-1.49-.41-2.36-.83-3.24-1.58v.83c-1.08.21-1.44.28-3.01.5-.87.13-1.09.17-1.39.23l-.19-1.56c-.2.62-.34.96-.7,1.6-.47-.62-.79-.97-1.4-1.44.4-.69.58-1.17.75-2,.2-1.03.29-2.64.29-5.09,0-1.05-.01-1.29-.08-1.79.42.04.88.07,1.58.07h6.29c.6,0,1.01-.01,1.4-.06-.03.31-.04.61-.04,1.12v.96c0,.58.01.8.04,1.13-.32-.02-.81-.03-1.33-.03h-.37v.47h.37c.71,0,.86,0,1.12-.03v1.39c-.36-.02-.74-.03-1.17-.03h-.32v.5h.67c.69,0,1.02-.01,1.31-.04v1.46c-.37-.03-.74-.04-1.27-.04h-.34l1.09.44ZM96.08,38.04c-.09.7-.19,1.21-.34,1.73.1.01.27.01.36.01.12,0,.44-.01.75-.03v-1.71h-.77ZM97.57,34.39h-1.29c-.01,1.11-.03,1.53-.08,2.29h1.37v-.5h-.17c-.41,0-.63.01-.9.03v-1.39c.25.02.51.03.91.03h.16v-.47ZM102.13,33.14v-.49h-5.85v.49h5.85ZM98.5,38.04v1.54c.52-.06.84-.1,1.27-.17-.39-.44-.63-.81-.87-1.38h-.4ZM100.49,34.85v-.47h-1.3v.47h1.3ZM100.49,36.68v-.5h-1.3v.5h1.3ZM100.61,38.04c.14.24.3.41.61.67.29-.23.48-.42.66-.67h-1.27Z"/>
          <path class="st3" d="M112.52,36.04h2.33c.55,0,.86-.01,1.14-.04v1.2c-.32-.03-.58-.04-1.12-.04h-2.81v.39h2.95c.68,0,1.03-.01,1.3-.04v1.43c-.39-.04-.68-.06-1.3-.06h-1.64c.72.44,1.96.81,3.19.96-.39.58-.46.71-.81,1.54-.89-.21-1.37-.37-2.02-.67-.74-.33-1.18-.61-1.7-1.07.02.29.03.47.03.63v.42c0,.36.01.52.07.76h-1.82c.04-.23.07-.42.07-.76v-.42c0-.24,0-.41.03-.63-.54.5-1.07.83-1.84,1.17-.53.22-1.17.42-1.84.59-.21-.57-.42-.96-.8-1.49,1.33-.19,2.32-.52,3.09-1.03h-1.57c-.61,0-.91.01-1.28.06v-1.43c.27.03.59.04,1.28.04h2.93v-.39h-1.97c-.46,0-.77.01-1.1.03.03-.29.04-.58.04-1.02v-.91c0-.28,0-.5.03-.83-.3.32-.46.46-.82.75-.21-.71-.37-1.07-.72-1.61.81-.58,1.35-1.17,1.88-2.02.16-.24.29-.52.34-.71l1.79.23c-.2.37-.28.5-.48.8h1.59c.2-.32.34-.62.49-1.02l1.79.16c-.18.33-.32.58-.5.87h2c.5,0,.8-.01,1.14-.06v1.32c-.23-.02-.49-.03-.87-.03h-2.5v.34h1.91c.66,0,.8,0,1.12-.04v1.02c-.33-.03-.44-.03-1.12-.03h-1.91v.34h1.91c.67,0,.76,0,1.12-.04v1.02c-.29-.03-.46-.03-1.12-.03h-1.91v.37ZM110.89,33.1h-1.9v.34h1.9v-.34ZM110.89,34.39h-1.9v.34h1.9v-.34ZM108.99,35.68v.37h1.9v-.37h-1.9Z"/>
          <path class="st3" d="M118.43,41.48c.04-.37.07-.81.07-1.56v-7.48c0-.51-.01-.86-.06-1.3.43.04.78.06,1.32.06h7.42c.56,0,.9-.01,1.31-.06-.04.44-.06.75-.06,1.3v7.48c0,.68.02,1.21.07,1.56h-1.69v-.36h-6.69v.36h-1.7ZM126.1,37.54c.27-.01.32-.01.48-.03v1.03c-.25-.02-.52-.03-.82-.03h-.39v.24c0,.44-.13.63-.53.74-.27.07-.52.09-1.29.09h-.39c-.08-.26-.11-.34-.19-.51l-.9.59c-.29-.32-.53-.53-.92-.81l.7-.34h-.67c-.31,0-.58.01-.81.03v-1.03c.25.03.48.04.84.04h2.75v-.33q-1.21.06-2.71.08c-.28.01-.46.02-.71.05l-.27-.96c.29.04.81.07,1.7.07h.7v-.28h-1.18c-.41,0-.57.01-.77.03.02-.27.03-.43.03-.7v-.88c0-.27-.01-.46-.03-.69.19.02.36.02.77.02h1.2v-.27h-1.29c-.42,0-.73.01-.97.04v-.98c.28.03.54.04.97.04h1.29v-.27h-2.55v7.23h6.65v-2.69l-.7.44ZM122.07,34.58v.25h.74v-.25h-.74ZM122.07,35.35v.24h.74v-.24h-.74ZM122.47,38.51c.14.09.19.11.32.22.28.03.48.04.72.04.34,0,.46-.04.46-.18v-.09h-1.5ZM124.05,34.83h.81v-.25h-.81v.25ZM124.05,35.6h.81v-.24h-.81v.24ZM124.11,36.44c.48-.01.63-.02,1.02-.04q-.06-.04-.21-.21h-.81v.26ZM126.8,32.55h-2.63v.27h1.38c.41,0,.68-.01.98-.04v.98c-.27-.03-.55-.04-.97-.04h-1.39v.27h1.25c.42,0,.58,0,.78-.02-.02.22-.03.39-.03.69v.88c0,.27,0,.36.02.6.29.3.41.44.61.71v-4.28ZM125.37,37.55h.6c-.12-.23-.16-.28-.27-.44l-.33.02v.42Z"/>
          <path class="st3" d="M134.24,39.9c0,.62.02,1.11.07,1.51h-1.82c.04-.38.07-.84.07-1.53v-3.08c-.38.37-.63.59-1.22,1.04-.34-.72-.59-1.1-1-1.57,1.33-.86,2.23-1.72,2.94-2.82h-1.2c-.6,0-1.02.02-1.42.07v-1.68c.4.04.82.07,1.42.07h1.96c.14-.39.22-.68.27-1.01l1.9.19c-.04.11-.16.39-.32.82h3.52c.62,0,1.04-.02,1.42-.07v1.68c-.41-.04-.83-.07-1.42-.07h-4.23c-.11.2-.2.34-.36.6h3.6c.55,0,.84-.01,1.16-.03-.04.33-.06.67-.06,1.23v4.81c0,.54-.18.91-.56,1.11-.29.14-.72.21-1.47.21-.29,0-.51-.01-1.01-.03-.05-.64-.14-1.01-.4-1.62.56.07,1.04.11,1.32.11.34,0,.42-.05.42-.31v-.39h-3.58v.75ZM137.82,36v-.49h-3.58v.49h3.58ZM137.82,37.82v-.5h-3.58v.5h3.58Z"/>
          <path class="st3" d="M147.16,32.52s-.01.02-.03.09c0,.01-.01.03-.02.08-.17.56-.54,1.52-.92,2.3.67,1.07.84,1.59.84,2.46,0,.62-.29,1.13-.77,1.37-.3.13-.71.21-1.24.22-.03-.8-.09-1.09-.29-1.6.13.02.2.03.3.03.33,0,.42-.08.42-.37,0-.49-.13-1.01-.38-1.44-.09-.17-.13-.23-.37-.54v4.79c0,.54.02,1.02.06,1.51h-1.76c.04-.37.07-.91.07-1.51v-7.43c0-.27-.01-.68-.04-1.22.24.03.42.04.88.04h1.73c.51,0,.69-.01.84-.06l.68.93q-.01-.44-.04-.89c.28.03.49.04,1.04.04h3.5c.53,0,.67-.01,1-.04-.03.22-.04.58-.04,1.24v2.81c0,.58.01.8.04,1.24q-.27-.01-.52-.02l1.12.91c-.06.04-.09.07-.57.5-.22.2-.58.49-.89.71.48.52.89.83,1.54,1.18-.37.49-.58.89-.84,1.63-.54-.32-.77-.49-1.13-.83-.39-.34-.67-.66-.92-1.01v.83c-.86.23-2.16.54-2.94.7-.74.14-1.02.21-1.21.28l-.27-1.75c.22,0,.47-.03,1.13-.12v-7.05ZM144.71,34.96c.37-.76.51-1.16.78-2.14h-.78v2.14ZM148.8,33.3h2.2v-.5h-2.2v.5ZM148.8,35.18h2.2v-.54h-2.2v.54ZM148.8,39.28c.46-.09.84-.18,1.24-.29-.4-.73-.62-1.41-.79-2.43h-.46v2.72ZM150.79,36.55c.07.39.11.54.22.82.31-.24.72-.63.88-.82h-1.1Z"/>
          <path class="st3" d="M159.76,31.81c-.08.11-.18.29-.3.56-.39.84-1.09,1.9-1.81,2.75-.56.66-1.01,1.1-1.76,1.7-.39-.71-.67-1.11-1.11-1.62,1.12-.77,1.94-1.63,2.59-2.74.32-.56.49-.94.57-1.33l1.82.69ZM163.38,41.5c-.28-.59-.36-.75-.57-1.19-1.96.32-3.6.49-6.57.66-.21.01-.41.03-.62.07l-.27-1.9c.23.02.43.03.81.03h.6c.63-1.09,1.13-2.08,1.57-3.08.46-1.01.56-1.32.68-1.9l1.99.49c-.08.13-.09.16-.17.36-.6,1.42-1.46,3.13-2.03,4.05,1.57-.08,2.38-.14,3.19-.27-.37-.62-.8-1.22-1.18-1.69l1.5-.82c1.11,1.47,1.99,2.83,2.72,4.24l-1.66.94ZM162.24,31.12c.14.57.66,1.49,1.2,2.17.6.74,1.23,1.29,2.12,1.83-.48.6-.72.98-1.09,1.7-1.08-.83-1.78-1.55-2.49-2.54-.56-.78-.8-1.2-1.28-2.28q-.06-.12-.1-.2l1.63-.68Z"/>
          <path class="st3" d="M176.79,39.76c0,1.31-.4,1.59-2.34,1.59-.28,0-.58-.01-1.01-.03-.13-.72-.23-1.05-.51-1.73.67.08,1.19.11,1.7.11.33,0,.47-.09.47-.33v-6.46h-6.28c-.8,0-1.12.01-1.52.06v-1.69c.37.06.71.07,1.52.07h6.78c.52,0,.87-.01,1.25-.06-.04.43-.05.7-.05,1.22v7.26ZM167.7,33.39c.29.03.48.04.97.04h4.81c.5,0,.7-.01.98-.04v1.62c-.28-.04-.5-.05-.97-.05h-4.82c-.48,0-.69.01-.97.05v-1.62ZM173.98,38.35c0,.53.01.79.03,1.08-.33-.02-.58-.03-1.13-.03h-3v.88h-1.72c.04-.34.06-.69.06-1.25v-2.52c0-.41-.01-.75-.06-1.06.3.02.59.03,1.08.03h3.61c.59,0,.88-.01,1.17-.03-.02.29-.03.54-.03,1.08v1.83ZM169.9,37.88h2.44v-.9h-2.44v.9Z"/>
        </g>
      </g>
    </g>
  </g>
</svg>